<svg xmlns="http://www.w3.org/2000/svg" xmlns:xlink="http://www.w3.org/1999/xlink" version="1.1" id="Layer_1" x="0px" y="0px" width="100px" height="100px" viewBox="0 0 100 100" enable-background="new 0 0 100 100" xml:space="preserve">
<path fill="#000000" d="M73.289,40.217c0.088-0.37,0.148-0.749,0.148-1.143c0-3.642-1.925-6.411-5.68-8.254  c-0.575-6.143-8.013-11.757-15.883-11.757c-0.282,0-1.137,0-1.659,0.646c-0.523,0.652-0.348,1.463-0.207,2.115  c0.054,0.247,0.165,0.764,0.101,0.884c-0.014,0.019-0.104,0.079-0.318,0.128c-0.183,0.042-0.846,0.088-1.486,0.132  c-4.248,0.294-15.253,1.077-16.04,7.842c-3.772,1.844-5.702,4.614-5.702,8.264c0,0.362,0.044,0.749,0.143,1.15  c-2.537,2.47-3.893,5.189-3.893,7.901c0,0.044,0.017,0.088,0.017,0.132c0.002,0.015-0.002,0.027,0,0.04l0.019,0.097  c0.021,0.348,0.086,0.692,0.191,1.029l2.291,12.208c0.006,0.025,0.021,0.046,0.025,0.069c0.008,0.024,0.002,0.05,0.012,0.073  c0.011,0.031,0.034,0.052,0.047,0.081c0.027,0.057,0.057,0.108,0.094,0.157c0.035,0.046,0.069,0.09,0.111,0.128  c0.039,0.037,0.081,0.064,0.125,0.094c0.051,0.033,0.101,0.067,0.159,0.09c0.044,0.018,0.088,0.025,0.134,0.036  c0.065,0.015,0.128,0.033,0.197,0.035c0.006,0,0.01,0.002,0.015,0.002c0.059,0,0.117-0.006,0.175-0.017  c0.018-0.004,0.032-0.017,0.049-0.021c0.031-0.007,0.061-0.001,0.09-0.013c0.301-0.106,0.615-0.159,0.938-0.159  c1.551,0,2.812,1.262,2.812,2.812c0,0.18-0.017,0.355-0.048,0.523c-0.003,0.019,0.004,0.037,0.002,0.055  c-0.007,0.049,0,0.097,0.002,0.146c0.004,0.073,0.004,0.146,0.023,0.214c0.013,0.046,0.037,0.084,0.056,0.126  c0.029,0.066,0.057,0.132,0.101,0.19c0.031,0.041,0.073,0.072,0.111,0.108c0.05,0.046,0.097,0.093,0.155,0.128  c0.016,0.007,0.022,0.022,0.037,0.029c2.013,1.064,3.311,3.41,3.311,5.979c0,1.492-0.419,2.9-1.214,4.068  c-0.011,0.017-0.013,0.037-0.024,0.055c-0.049,0.088-0.091,0.176-0.113,0.271c-0.005,0.029-0.004,0.057-0.007,0.086  c-0.011,0.09-0.017,0.176-0.002,0.266c0.005,0.037,0.021,0.071,0.033,0.108c0.021,0.075,0.046,0.15,0.088,0.218  c0.025,0.044,0.062,0.079,0.095,0.117c0.037,0.044,0.061,0.093,0.106,0.13c0.659,0.536,1.038,1.333,1.038,2.181  c0,0.648-0.213,1.254-0.617,1.756c-0.025,0.031-0.033,0.071-0.055,0.104c-0.013,0.022-0.035,0.035-0.046,0.059  c-0.011,0.022-0.009,0.046-0.019,0.068c-0.031,0.071-0.051,0.143-0.062,0.218c-0.007,0.049-0.011,0.093-0.011,0.143  c0,0.069,0.01,0.135,0.024,0.203c0.011,0.051,0.025,0.099,0.045,0.148c0.026,0.059,0.056,0.113,0.094,0.167  c0.033,0.049,0.069,0.093,0.111,0.135c0.024,0.024,0.035,0.053,0.061,0.073c0.031,0.026,0.07,0.037,0.103,0.057  c0.024,0.015,0.039,0.037,0.062,0.05c4.104,2.095,9.873,3.248,16.247,3.248c12.032,0,19.407-3.913,21.424-7.815  c0.003-0.005,0.005-0.011,0.009-0.016c0.009-0.019,0.021-0.035,0.031-0.053c0.017-0.033,0.015-0.068,0.027-0.103  c0.019-0.048,0.046-0.092,0.055-0.145l5.415-28.874c0.105-0.337,0.17-0.681,0.191-1.029l0.019-0.097c0.002-0.013-0.002-0.025,0-0.04  c0-0.044,0.017-0.088,0.017-0.132C77.188,45.411,75.831,42.688,73.289,40.217z M27.555,42.013c1.038,1.439,3.055,2.9,6.795,4.042  c0.092,0.027,0.184,0.04,0.273,0.04c0.402,0,0.774-0.26,0.896-0.665c0.15-0.494-0.128-1.018-0.624-1.17  c-2.411-0.734-6.458-2.384-6.458-5.186c0-2.708,1.324-4.761,4.02-6.261c0.421,1.011,1.442,2.168,3.733,3.225  c0.471,0.214,1.027,0.013,1.245-0.458c0.216-0.471,0.011-1.027-0.458-1.245c-1.853-0.855-2.915-1.86-2.915-2.761  c0-5.74,10.44-6.464,14.372-6.736c0.978-0.068,1.461-0.103,1.774-0.174c2.223-0.507,1.809-2.42,1.631-3.237  c-0.031-0.145-0.071-0.338-0.091-0.485c0.034-0.002,0.076-0.004,0.126-0.004c7.098,0,14.062,5.268,14.062,10.637  c0,0.969-1.264,2.078-3.38,2.966c-0.479,0.2-0.703,0.749-0.502,1.227c0.15,0.359,0.498,0.575,0.864,0.575  c0.121,0,0.243-0.024,0.362-0.073c2.657-1.115,3.809-2.366,4.263-3.457c2.693,1.5,4.018,3.556,4.018,6.262  c0,3.155-5.341,5.689-13.939,6.615c-0.515,0.055-0.887,0.519-0.832,1.033c0.052,0.479,0.458,0.836,0.931,0.836  c0.034,0,0.067-0.001,0.103-0.005c7.615-0.82,12.636-2.745,14.634-5.528c1.853,1.956,2.831,4.024,2.851,6.037l-0.178,0.945  c-1.38,3.735-11.305,7.555-25.131,7.555s-23.751-3.819-25.131-7.555l-0.178-0.945C24.711,46.045,25.692,43.972,27.555,42.013z   M50,84.554c-5.633,0-10.717-0.936-14.494-2.631c0.272-0.603,0.432-1.254,0.432-1.923c0-1.137-0.423-2.207-1.153-3.051  c0.741-1.334,1.153-2.851,1.153-4.449c0-3.02-1.467-5.801-3.769-7.297c0.004-0.067,0.019-0.134,0.019-0.203  c0-2.585-2.102-4.688-4.688-4.688c-0.168,0-0.335,0.024-0.502,0.042l-1.439-7.665c4.369,3.429,13.549,5.748,24.441,5.748  s20.072-2.318,24.441-5.75l-4.708,25.105C68.007,81.065,61.144,84.554,50,84.554z"/>
<path fill="#000000" d="M43.533,38.021c2.054,0.294,4.229,0.443,6.467,0.443c2.323,0,4.585-0.161,6.72-0.481  c0.511-0.075,0.864-0.553,0.788-1.066c-0.077-0.513-0.561-0.858-1.066-0.787c-4.008,0.599-8.633,0.609-12.642,0.035  c-0.511-0.061-0.986,0.282-1.062,0.794C42.665,37.472,43.02,37.948,43.533,38.021z"/>
<path fill="#000000" d="M57.5,73.438h-15c-0.519,0-0.938,0.419-0.938,0.938s0.419,0.938,0.938,0.938h8.438v2.812  c0,2.067,1.681,3.75,3.75,3.75s3.75-1.683,3.75-3.75v-3.75C58.438,73.857,58.019,73.438,57.5,73.438z M54.688,80  c-1.033,0-1.875-0.84-1.875-1.875v-2.812h3.75v2.812C56.562,79.16,55.721,80,54.688,80z"/>
<path fill="#000000" d="M41.837,69.413c0.184,0.183,0.423,0.274,0.663,0.274s0.479-0.092,0.663-0.274  c0.366-0.366,0.366-0.96,0-1.326l-1.212-1.212l1.212-1.212c0.366-0.366,0.366-0.96,0-1.326s-0.96-0.366-1.326,0l-1.212,1.212  l-1.212-1.212c-0.366-0.366-0.96-0.366-1.326,0s-0.366,0.96,0,1.326l1.212,1.212l-1.212,1.212c-0.366,0.366-0.366,0.96,0,1.326  c0.184,0.183,0.423,0.274,0.663,0.274s0.479-0.092,0.663-0.274l1.212-1.212L41.837,69.413z"/>
<path fill="#000000" d="M61.913,64.337c-0.366-0.366-0.96-0.366-1.326,0l-1.212,1.212l-1.212-1.212c-0.366-0.366-0.96-0.366-1.326,0  s-0.366,0.96,0,1.326l1.212,1.212l-1.212,1.212c-0.366,0.366-0.366,0.96,0,1.326c0.184,0.183,0.423,0.274,0.663,0.274  s0.479-0.092,0.663-0.274l1.212-1.212l1.212,1.212c0.184,0.183,0.423,0.274,0.663,0.274s0.479-0.092,0.663-0.274  c0.366-0.366,0.366-0.96,0-1.326l-1.212-1.212l1.212-1.212C62.279,65.297,62.279,64.703,61.913,64.337z"/>
</svg>