<svg xmlns="http://www.w3.org/2000/svg" xmlns:xlink="http://www.w3.org/1999/xlink" version="1.1" id="Layer_1" x="0px" y="0px" width="100px" height="100px" viewBox="0 0 100 100" enable-background="new 0 0 100 100" xml:space="preserve">
<path fill="#000000" d="M73.545,40.217c0.088-0.37,0.148-0.749,0.148-1.143c0-3.642-1.924-6.411-5.68-8.254  c-0.575-6.143-8.013-11.757-15.882-11.757c-0.282,0-1.137,0-1.659,0.646c-0.524,0.652-0.348,1.463-0.207,2.115  c0.053,0.247,0.165,0.764,0.101,0.884c-0.015,0.019-0.104,0.079-0.318,0.128c-0.184,0.042-0.846,0.088-1.487,0.132  c-4.248,0.294-15.252,1.077-16.04,7.842c-3.771,1.844-5.702,4.614-5.702,8.264c0,0.362,0.044,0.749,0.143,1.15  c-2.538,2.47-3.893,5.189-3.893,7.901c0,0.044,0.017,0.088,0.017,0.132c0.001,0.015-0.002,0.027,0,0.04l0.018,0.097  c0.022,0.348,0.086,0.692,0.192,1.029l5.415,28.874c0.009,0.053,0.037,0.097,0.055,0.145c0.013,0.035,0.011,0.069,0.028,0.103  c0.009,0.018,0.021,0.035,0.031,0.053c0.004,0.005,0.005,0.011,0.009,0.016c2.016,3.902,9.392,7.815,21.423,7.815  s19.407-3.913,21.423-7.815c0.004-0.005,0.005-0.011,0.009-0.016c0.009-0.019,0.022-0.035,0.031-0.053  c0.017-0.033,0.015-0.068,0.028-0.103c0.018-0.048,0.045-0.092,0.055-0.145l5.415-28.874c0.106-0.337,0.17-0.681,0.192-1.029  l0.018-0.097c0.002-0.013-0.001-0.025,0-0.04c0-0.044,0.017-0.088,0.017-0.132C77.444,45.411,76.087,42.688,73.545,40.217z   M27.812,42.013c1.038,1.439,3.054,2.9,6.795,4.042c0.091,0.027,0.183,0.04,0.272,0.04c0.403,0,0.775-0.26,0.897-0.665  c0.15-0.494-0.128-1.018-0.625-1.17c-2.412-0.734-6.458-2.384-6.458-5.186c0-2.708,1.324-4.761,4.019-6.261  c0.421,1.011,1.443,2.168,3.733,3.225c0.471,0.214,1.025,0.013,1.245-0.458c0.216-0.471,0.011-1.027-0.458-1.245  c-1.853-0.855-2.915-1.86-2.915-2.761c0-5.74,10.441-6.464,14.372-6.736c0.978-0.068,1.461-0.103,1.774-0.174  c2.223-0.507,1.81-2.42,1.632-3.237c-0.031-0.145-0.071-0.338-0.092-0.485c0.035-0.002,0.077-0.004,0.126-0.004  c7.097,0,14.062,5.268,14.062,10.637c0,0.969-1.263,2.078-3.38,2.966c-0.478,0.2-0.703,0.749-0.501,1.227  c0.15,0.359,0.498,0.575,0.864,0.575c0.121,0,0.244-0.024,0.363-0.073c2.657-1.115,3.809-2.366,4.263-3.457  c2.693,1.5,4.017,3.556,4.017,6.262c0,3.155-5.341,5.689-13.94,6.615c-0.515,0.055-0.886,0.519-0.831,1.033  c0.051,0.479,0.458,0.836,0.93,0.836c0.035,0,0.068-0.001,0.103-0.005c7.615-0.82,12.636-2.745,14.634-5.528  c1.853,1.956,2.831,4.024,2.851,6.037l-0.178,0.945c-1.381,3.735-11.305,7.555-25.131,7.555s-23.75-3.819-25.131-7.555l-0.178-0.945  C24.968,46.045,25.949,43.972,27.812,42.013z M50.256,84.554c-11.144,0-18.006-3.488-19.733-6.76l-4.708-25.105  c4.369,3.431,13.548,5.75,24.441,5.75s20.072-2.318,24.441-5.75L69.99,77.793C68.263,81.065,61.4,84.554,50.256,84.554z"/>
<path fill="#000000" d="M43.789,38.021c2.055,0.294,4.229,0.443,6.467,0.443c2.324,0,4.585-0.161,6.72-0.481  c0.511-0.075,0.864-0.553,0.787-1.066s-0.553-0.858-1.065-0.787c-4.008,0.599-8.634,0.609-12.642,0.035  c-0.513-0.061-0.987,0.282-1.062,0.794C42.921,37.472,43.276,37.948,43.789,38.021z"/>
<ellipse fill="#000000" cx="40.881" cy="65.938" rx="1.875" ry="2.812"/>
<ellipse fill="#000000" cx="59.631" cy="65.938" rx="1.875" ry="2.812"/>
<path fill="#000000" d="M55.881,71.562c-0.518,0-0.938,0.419-0.938,0.938c0,2.585-2.102,4.688-4.688,4.688s-4.688-2.102-4.688-4.688  c0-0.518-0.419-0.938-0.938-0.938s-0.938,0.419-0.938,0.938c0,3.618,2.944,6.562,6.562,6.562s6.562-2.944,6.562-6.562  C56.819,71.982,56.399,71.562,55.881,71.562z"/>
</svg>