<svg xmlns="http://www.w3.org/2000/svg" xmlns:xlink="http://www.w3.org/1999/xlink" version="1.1" id="Layer_1" x="0px" y="0px" width="100px" height="100px" viewBox="0 0 100 100" enable-background="new 0 0 100 100" xml:space="preserve">
<path fill="#000000" d="M83.75,45.312h-0.002h-0.002h-2.809V42.5c0-6.834-8.648-12.188-19.688-12.188h-2.908  c-0.436-2.137-2.326-3.75-4.592-3.75h-7.5c-2.266,0-4.156,1.613-4.592,3.75H38.75c-11.039,0-19.688,5.354-19.688,12.188v2.812H16.25  c-1.551,0-2.812,1.262-2.812,2.812s1.262,2.812,2.812,2.812h2.812v15.938c0,0.008,0.004,0.011,0.004,0.019  c0.002,1.747,0.683,3.388,1.917,4.623c1.239,1.237,2.888,1.921,4.642,1.921h48.75c3.618,0,6.562-2.944,6.562-6.562V50.938h2.809  h0.002h0.002c1.551,0,2.812-1.262,2.812-2.812S85.301,45.312,83.75,45.312z M46.25,28.438h7.5c1.221,0,2.252,0.785,2.641,1.875  H43.609C43.998,29.223,45.029,28.438,46.25,28.438z M38.75,32.188h22.5c9.274,0,16.908,4.127,17.73,9.375H21.02  C21.842,36.314,29.476,32.188,38.75,32.188z M16.25,49.062c-0.517,0-0.938-0.421-0.938-0.938s0.421-0.938,0.938-0.938h2.812v1.875  H16.25z M74.375,71.562h-48.75c-1.252,0-2.43-0.487-3.316-1.371c-0.884-0.885-1.369-2.062-1.369-3.316  c0-0.004-0.002-0.006-0.002-0.01V43.438h58.125v2.794c0,0.008-0.004,0.011-0.004,0.019s0.004,0.011,0.004,0.019v3.713  c0,0.008-0.004,0.011-0.004,0.019s0.004,0.011,0.004,0.019v16.856C79.062,69.461,76.961,71.562,74.375,71.562z M83.75,49.062h-0.002  h-0.002h-2.809v-1.875h2.809h0.002h0.002c0.517,0,0.938,0.421,0.938,0.938S84.267,49.062,83.75,49.062z"/>
<path fill="#000000" d="M59.375,50c-0.004,0-0.008,0.002-0.011,0.002c-0.002,0-0.006-0.002-0.009-0.002  c-1.037,0-1.875,1.258-1.875,2.812c0,1.553,0.838,2.812,1.875,2.812c0.003,0,0.007-0.002,0.009-0.002  c0.003,0,0.007,0.002,0.011,0.002c1.036,0,1.875-1.26,1.875-2.812C61.25,51.258,60.411,50,59.375,50z"/>
<path fill="#000000" d="M57.48,60.312h-15c-0.519,0-0.938,0.42-0.938,0.938s0.419,0.938,0.938,0.938h8.438V65  c0,2.067,1.68,3.75,3.75,3.75c2.068,0,3.75-1.683,3.75-3.75v-3.75C58.418,60.732,57.998,60.312,57.48,60.312z M54.668,66.875  c-1.033,0-1.875-0.84-1.875-1.875v-2.812h3.75V65C56.543,66.035,55.7,66.875,54.668,66.875z"/>
<path fill="#000000" d="M44.355,52.812c0-0.518-0.42-0.938-0.938-0.938h-3.75c-0.519,0-0.938,0.42-0.938,0.938  s0.419,0.938,0.938,0.938h3.75C43.936,53.75,44.355,53.33,44.355,52.812z"/>
</svg>