<svg xmlns="http://www.w3.org/2000/svg" xmlns:xlink="http://www.w3.org/1999/xlink" version="1.1" id="Layer_1" x="0px" y="0px" viewBox="0 0 100 100" enable-background="new 0 0 100 100" xml:space="preserve" height="100px" width="100px">
<g>
	<path fill="#000000" d="M93.4,75.1C93,74.8,92.3,75,92,75.4L89.7,79H9.8L8,75.3c-0.2-0.5-0.8-0.7-1.3-0.4c-0.5,0.2-0.7,0.8-0.4,1.3   l2.1,4.2C8.5,80.8,8.8,81,9.2,81h81.1c0.3,0,0.7-0.2,0.8-0.5l2.6-4C94,76,93.9,75.4,93.4,75.1z"/>
	<path fill="#000000" d="M16.3,69.4h2.1v2.1c0,3,2.4,5.4,5.4,5.4H42c3,0,5.4-2.4,5.4-5.4v-3c1.2,0.7,2.4,1.3,3.8,1.8l-1,5.1   c-0.1,0.3,0,0.6,0.2,0.8c0.2,0.2,0.5,0.4,0.8,0.4h22.2c0.3,0,0.6-0.1,0.8-0.4c0.2-0.2,0.3-0.5,0.2-0.8l-1-5.1   c6.7-2.5,13.2-8,13.6-19.9c0-0.3-0.1-0.5-0.3-0.7c-0.2-0.2-0.4-0.3-0.7-0.3h-7.8c2-2.2,7.5-8.6,7-13.2c-0.2-1.5-0.8-3-1.8-4.1   l3.8-5.1c0.3-0.4,0.2-1.1-0.2-1.4c-0.4-0.3-1.1-0.2-1.4,0.2L83,29l0.9-8c0.1-0.5-0.3-1-0.9-1.1c-0.5-0.1-1,0.3-1.1,0.9L80.9,30   c-0.3-0.1-0.5-0.3-0.8-0.4c-2.2-0.8-4.4-0.5-5.8,0.8c-1.8,1.7-3.9,4.7-5.2,6.8c-0.2-0.8-0.4-1.5-0.8-2.2c-1-1.6-2.5-2.4-4.5-2.6   c-2.1-0.2-3.7,0.4-4.8,1.6c-0.6,0.7-0.9,1.5-1.1,2.3c-0.8-0.6-2-1.1-3.5-1.3c-1.6-0.2-2.9,0.1-3.9,1.1c-1.1,1-1.5,2.5-1.7,3.8   c-0.4-0.2-0.9-0.4-1.4-0.5c-1.4-0.1-2.7,0.6-4,2.3c-1.4,1.8-1.9,3.6-1.4,5.2c0.3,0.9,0.8,1.7,1.4,2.3h-4.7c-0.3,0-0.5,0.1-0.7,0.3   c-0.2,0.2-0.3,0.5-0.3,0.7c0,0.8,0.1,1.6,0.2,2.4H19.4c-0.6,0-1,0.4-1,1V59h-2.1c-2.9,0-5.2,2.3-5.2,5.2   C11.1,67,13.5,69.4,16.3,69.4z M40.1,54.8h5.2v9.7v2.7v4.3c0,1.9-1.5,3.4-3.4,3.4H23.8c-1.9,0-3.4-1.5-3.4-3.4V54.8h17.7H40.1z    M72.1,74.5H52.4l0.7-3.7c2.3,0.6,4.8,1.1,7.5,1.3c0,0,0.7,0,1.7,0c0.5,0,1,0,1.5,0c2.2-0.1,4.9-0.5,7.5-1.3L72.1,74.5z M69.3,40.8   c0,0,0.1-0.1,0.1-0.1c0,0,1.1-1.9,2.5-4c3,0,5.6,3.1,5.6,3.1c0.2,0.2,0.5,0.4,0.8,0.4c0.2,0,0.4-0.1,0.6-0.2c0.4-0.3,0.5-1,0.1-1.4   c-0.1-0.1-2.6-3.1-5.8-3.7c0.8-1.1,1.7-2.1,2.4-2.8c0.9-0.8,2.3-1,3.8-0.4c1.5,0.6,3.4,2.2,3.7,4.8c0.3,2.7-2.5,6.9-4.9,9.8   c-1-0.9-2.7-1.9-4.1-2.7c-0.5-0.3-1.1-0.1-1.3,0.4c-0.3,0.5-0.1,1.1,0.4,1.3c1.6,0.9,3.3,1.9,3.8,2.4c-0.3,0.4-0.6,0.7-0.9,1   c-0.2,0.2-0.3,0.5-0.3,0.7h-8.4C68,47.7,69.1,44.2,69.3,40.8z M43.8,46.5c-0.3-1,0.1-2.1,1.1-3.4c0.6-0.7,1.4-1.6,2.2-1.5   c0.8,0.1,1.4,1,1.6,1.4c0.2,0.4,0.7,0.6,1.2,0.5c0.5-0.1,0.8-0.6,0.7-1c-0.1-0.9,0-3.5,1.2-4.7c0.5-0.5,1.3-0.7,2.3-0.5   c2.3,0.3,3.3,1.4,3.7,2.2c0.1,1,0.3,1.7,0.3,1.8c0.1,0.5,0.6,0.8,1,0.7c0.5,0,0.9-0.4,0.9-0.9c0.1-0.6,0-1.3-0.3-2.1   c-0.1-1.2,0-2.6,0.8-3.4c0.6-0.7,1.6-1,3.1-0.9c1.4,0.1,2.4,0.6,3,1.6c2,3.2-0.2,10.3-1.3,13.1h-3.5l0.9-5.6   c0.1-0.5-0.3-1.1-0.8-1.2c-0.5-0.1-1.1,0.3-1.2,0.8l-1,6H55l-2.4-4c-0.3-0.5-0.9-0.6-1.4-0.3c-0.5,0.3-0.6,0.9-0.3,1.4l1.8,2.9   h-5.7C46.3,49.1,44.3,48.1,43.8,46.5z M39.7,51.3h7h38.1c-1,14.5-12,18.3-21.1,18.8c-1.5,0.1-3,0-3,0h0c-5.6-0.5-10-1.9-13.4-4.1   V53.8c0-0.6-0.4-1-1-1h-6.6C39.7,52.3,39.7,51.8,39.7,51.3z M16.3,61h2.1v6.4h-2.1c-1.8,0-3.2-1.4-3.2-3.2S14.6,61,16.3,61z"/>
	<path fill="#000000" d="M28.8,22.9c0.1,0,3.2,1,2.6,4.3c-0.2,1.2-0.9,2.1-1.6,3c-1.4,1.9-3.1,4.1,0.8,8c0.2,0.2,0.5,0.3,0.7,0.3   c0.3,0,0.5-0.1,0.7-0.3c0.4-0.4,0.4-1,0-1.4c-2.7-2.7-2-3.6-0.6-5.4c0.8-1,1.7-2.2,1.9-3.9c0.7-4-2.4-6-4-6.5   c-0.5-0.2-1.1,0.1-1.2,0.7C28,22.1,28.3,22.7,28.8,22.9z"/>
	<path fill="#000000" d="M32.4,32.2c-0.3,0.5-0.1,1.1,0.3,1.4c0.3,0.2,2.8,1.9,1.4,4.8c-0.5,1.1-1.4,1.8-2.3,2.5   c-1.9,1.5-4,3.2-1.3,8c0.2,0.3,0.5,0.5,0.9,0.5c0.2,0,0.3,0,0.5-0.1c0.5-0.3,0.7-0.9,0.4-1.4c-1.9-3.3-1-4,0.8-5.4   c1-0.8,2.2-1.7,2.9-3.3c1.7-3.7-0.7-6.4-2.2-7.3C33.3,31.6,32.7,31.8,32.4,32.2z"/>
</g>
</svg>