<svg xmlns="http://www.w3.org/2000/svg" xmlns:xlink="http://www.w3.org/1999/xlink" version="1.1" id="Your_Icon" x="0px" y="0px" width="100px" height="100px" viewBox="0 0 100 100" enable-background="new 0 0 100 100" xml:space="preserve">
<path d="M44.18,24.752c0-7.378-3.583-20.459-9.842-20.459l0,0c-6.259,0-9.834,13.081-9.834,20.459c0,8.719,8.039,8.828,8.039,15.314  c0,5.493,0.038,23.456,0,24.298c-0.402,7.815-3.791,16.503-3.791,23.773c0,6.147,5.586,6.147,5.586,6.147l0,0  c0,0,5.586,0,5.586-6.147c0-7.271-3.387-15.958-3.784-23.773c-0.044-0.842,0-18.805,0-24.298C36.14,33.58,44.18,33.471,44.18,24.752  z"/>
<g id="Layer_6_1_">
	<path d="M61.87,4c0,0,4.293,0.129,4.787,3.583c0.5,3.459-2.918,47.399-2.925,48.896c-0.005,1.496,0.392,5.646,2.025,7.831   c1.621,2.191,2.747,3.116,2.634,5.877c-0.113,2.764-1.005,24.165-1.72,24.158c-0.715,0,0.278-22.433-1.663-22.443   c-1.941,0-0.38,22.324-1.609,22.319c-1.225-0.005,0.487-22.553-1.761-22.559h0.107c-2.251-0.009-0.688,22.554-1.914,22.548   c-1.229-0.006,0.485-22.318-1.461-22.329c-1.941-0.005-1.093,22.438-1.808,22.434c-0.719-0.006-1.463-21.41-1.559-24.173   c-0.088-2.764,1.037-3.678,2.679-5.857c1.645-2.181,2.069-6.32,2.073-7.815c0.004-1.501-3.118-45.47-2.594-48.919   C57.684,4.1,61.975,4,61.975,4H61.87z"/>
</g>
</svg>