<svg xmlns="http://www.w3.org/2000/svg" xmlns:xlink="http://www.w3.org/1999/xlink" version="1.1" id="Layer_1" x="0px" y="0px" viewBox="0 0 100 64.6" enable-background="new 0 0 100 64.6" xml:space="preserve" height="100px" width="100px">
<g>
	<path fill="#000000" d="M51.1,0C33.3,0,18.8,14.5,18.8,32.3c0,17.8,14.5,32.3,32.3,32.3s32.3-14.5,32.3-32.3   C83.4,14.5,68.9,0,51.1,0z M51.1,61.8c-16.2,0-29.4-13.2-29.4-29.4S34.9,2.9,51.1,2.9c16.2,0,29.4,13.2,29.4,29.4   S67.3,61.8,51.1,61.8z"/>
	<path fill="#000000" d="M51.1,11.8c-11.3,0-20.5,9.2-20.5,20.5s9.2,20.5,20.5,20.5s20.5-9.2,20.5-20.5S62.4,11.8,51.1,11.8z    M51.1,49.9c-9.7,0-17.6-7.9-17.6-17.6c0-9.7,7.9-17.6,17.6-17.6s17.6,7.9,17.6,17.6C68.7,42,60.8,49.9,51.1,49.9z"/>
	<path fill="#000000" d="M100,4c-0.1-0.7-0.6-1.2-1.3-1.2c-0.7,0-1.3,0.5-1.3,1.2h-0.1v13.1h-2.8V4h-0.1c-0.1-0.8-0.7-1.5-1.6-1.5   c-0.8,0-1.5,0.6-1.6,1.5h0v0c0,0.1,0,0.1,0,0.2h0v13h-2.8v-13h0c0,0,0-0.1,0-0.1V4h0c-0.1-0.7-0.7-1.3-1.4-1.3S85.6,3.3,85.5,4h0   v0.1c0,0,0,0.1,0,0.1h0v13.5l0.1,0.1c0.3,3.2,2.6,5.8,5.7,6.5v36.4c0,0.8,0.6,1.4,1.4,1.4c0.8,0,1.4-0.6,1.4-1.4V24.3   c3.1-0.6,5.5-3.3,5.7-6.6l0.1,0L100,4L100,4z"/>
	<path fill="#000000" d="M11.7,1.9C5.2,1.9,0,7.2,0,13.6v25.5c0,0.8,0.6,1.4,1.4,1.4h8.8v20.7c0,0.8,0.6,1.4,1.4,1.4   c0.8,0,1.4-0.6,1.4-1.4V3.4C13.1,2.6,12.5,1.9,11.7,1.9z M10.2,37.7H2.9V13.6c0-4.3,3.2-7.9,7.3-8.6V37.7z"/>
</g>
</svg>